<svg width="18.000000" height="18.000000" viewBox="0 0 18 18" fill="none" xmlns="http://www.w3.org/2000/svg" xmlns:xlink="http://www.w3.org/1999/xlink">
	<desc>
			Created with Pixso.
	</desc>
	<defs>
		<clipPath id="clip8_62">
			<rect id="Icon" width="18.000000" height="18.000000" fill="white" fill-opacity="0"/>
		</clipPath>
	</defs>
	<rect id="Icon" width="18.000000" height="18.000000" fill="#FFFFFF" fill-opacity="0"/>
	<g clip-path="url(#clip8_62)">
		<path id="Vector" d="M14.2256 11.1504C13.8572 10.7667 13.4126 10.5615 12.9415 10.5615C12.4742 10.5615 12.026 10.7629 11.6423 11.1466L10.4418 12.3433C10.343 12.2901 10.2443 12.2407 10.1493 12.1913C10.0126 12.1229 9.8833 12.0583 9.77319 11.99C8.64868 11.2757 7.62671 10.345 6.64661 9.14069C6.17175 8.54044 5.85254 8.03516 5.62085 7.52231C5.93237 7.23737 6.22107 6.94104 6.5022 6.65613C6.60864 6.54974 6.71497 6.43958 6.82129 6.33322C7.61914 5.5354 7.61914 4.50208 6.82129 3.70428L5.78418 2.66714C5.6665 2.54938 5.54492 2.42783 5.43091 2.30624C5.203 2.07071 4.96362 1.82758 4.71667 1.59961C4.34814 1.23492 3.90747 1.04117 3.44397 1.04117C2.98059 1.04117 2.53223 1.23492 2.15234 1.59961C2.14856 1.60342 2.14856 1.60342 2.14478 1.60721L0.853027 2.91028C0.366821 3.39658 0.0894775 3.9892 0.0286865 4.67682C-0.0625 5.78616 0.264282 6.81949 0.515015 7.4957C1.13037 9.15588 2.0498 10.6945 3.42126 12.3433C5.08521 14.3302 7.08728 15.8991 9.37427 17.0047C10.248 17.4188 11.4143 17.9088 12.7174 17.9924C12.7972 17.9962 12.8807 18 12.9568 18C13.8344 18 14.5714 17.6847 15.1488 17.0578C15.1526 17.0502 15.1602 17.0464 15.1641 17.0388C15.3616 16.7995 15.5895 16.583 15.8289 16.3512C15.9922 16.1955 16.1593 16.0321 16.3228 15.8612C16.6989 15.4699 16.8964 15.014 16.8964 14.5467C16.8964 14.0756 16.6951 13.6235 16.3113 13.2436L14.2256 11.1504ZM15.5857 15.1507C15.4375 15.3103 15.2855 15.4547 15.1222 15.6142C14.8752 15.8498 14.6245 16.0967 14.389 16.374C14.0052 16.7843 13.5532 16.9781 12.9606 16.9781C12.9036 16.9781 12.8428 16.9781 12.7858 16.9743C11.6575 16.9021 10.609 16.4614 9.82263 16.0853C7.67236 15.0444 5.78418 13.5665 4.21521 11.6936C2.9198 10.1322 2.05359 8.6886 1.47998 7.13861C1.12659 6.19266 0.997437 5.45563 1.05444 4.76041C1.09241 4.31592 1.26343 3.94742 1.57874 3.63211L2.87415 2.33664C3.0603 2.16187 3.25781 2.06689 3.45166 2.06689C3.69092 2.06689 3.88464 2.21127 4.00623 2.33282C4.01001 2.33664 4.01392 2.34042 4.0177 2.34424C4.24939 2.56079 4.46973 2.78491 4.70154 3.02426C4.81921 3.14581 4.9408 3.2674 5.06238 3.39276L6.09949 4.4299C6.5022 4.83258 6.5022 5.2049 6.09949 5.6076C5.98938 5.71777 5.88293 5.82794 5.77283 5.9343C5.45374 6.26102 5.14978 6.56494 4.81921 6.86127C4.81165 6.86887 4.80408 6.87268 4.80029 6.88028C4.47351 7.20697 4.5343 7.52609 4.60266 7.74265C4.60657 7.75403 4.61035 7.76544 4.61414 7.77682C4.88379 8.43027 5.26379 9.04572 5.84119 9.77893L5.84497 9.78271C6.89355 11.0744 7.99902 12.0811 9.21851 12.8523C9.37427 12.9511 9.53381 13.0309 9.68579 13.1069C9.82263 13.1752 9.95178 13.2398 10.0619 13.3082C10.0771 13.3158 10.0923 13.3272 10.1075 13.3348C10.2367 13.3994 10.3583 13.4298 10.4836 13.4298C10.799 13.4298 10.9965 13.2322 11.061 13.1676L12.3604 11.8684C12.4895 11.7392 12.6946 11.5835 12.934 11.5835C13.1696 11.5835 13.3633 11.7316 13.4811 11.8608C13.4849 11.8646 13.4849 11.8646 13.4886 11.8684L15.5819 13.9616C15.9731 14.3492 15.9731 14.748 15.5857 15.1507Z" fill="#000000" fill-opacity="1.000000" fill-rule="nonzero"/>
		<path id="Vector" d="M9.72754 4.28171C10.7229 4.44888 11.6271 4.91995 12.3489 5.64175C13.0707 6.36359 13.538 7.26776 13.709 8.26309C13.7507 8.51382 13.9673 8.6886 14.2142 8.6886C14.2446 8.6886 14.2712 8.68478 14.3016 8.681C14.5828 8.63541 14.7689 8.36948 14.7233 8.08835C14.5182 6.88406 13.9482 5.78613 13.0784 4.91617C12.2084 4.04617 11.1105 3.47632 9.90613 3.27118C9.625 3.22559 9.36292 3.41174 9.31348 3.68906C9.26404 3.9664 9.44641 4.23615 9.72754 4.28171Z" fill="#000000" fill-opacity="1.000000" fill-rule="nonzero"/>
		<path id="Vector" d="M17.9791 7.94019C17.641 5.95709 16.7064 4.15256 15.2704 2.71652C13.8344 1.28049 12.0299 0.345947 10.0468 0.0078125C9.76941 -0.0415649 9.50732 0.148376 9.45789 0.42572C9.41235 0.706848 9.59851 0.968964 9.87964 1.01837C11.6499 1.31848 13.2645 2.15808 14.5486 3.43832C15.8326 4.72241 16.6685 6.33701 16.9686 8.10733C17.0104 8.35806 17.2269 8.53284 17.4739 8.53284C17.5043 8.53284 17.5309 8.52902 17.5613 8.52524C17.8385 8.48343 18.0286 8.2175 17.9791 7.94019Z" fill="#000000" fill-opacity="1.000000" fill-rule="nonzero"/>
	</g>
</svg>
